<svg xmlns="http://www.w3.org/2000/svg" xml:space="preserve" width="196" height="196"><linearGradient id="a" x1="98" x2="98" y1="17.981" y2="216.132" gradientUnits="userSpaceOnUse"><stop offset="0" style="stop-color:#ff8c73"/><stop offset="1" style="stop-color:#ff049f"/></linearGradient><path d="M129.98 56.75v102.06h-15.64c-.03-6.89-5.62-12.47-12.52-12.47s-12.49 5.58-12.52 12.47H73.66V0H24.59v118.01c0 21.49 5.63 38.99 16.89 52.51 6.48 7.79 14.71 13.98 24.71 18.58s20.25 6.9 30.76 6.9c20.93 0 38.57-7.04 52.93-21.12s21.54-31.39 21.54-51.95c0-20.08-7.06-37.26-21.19-51.52-6.2-6.26-12.95-11.14-20.25-14.66" style="fill:url(#a)"/><linearGradient id="b" x1="82.458" x2="82.458" y1="17.981" y2="216.132" gradientUnits="userSpaceOnUse"><stop offset="0" style="stop-color:#ff8c73"/><stop offset="1" style="stop-color:#ff09a2"/></linearGradient><path d="M78.88 133.49h7.15v3.57h-7.15z" style="fill:url(#b)"/><linearGradient id="c" x1="95.323" x2="95.323" y1="17.981" y2="216.132" gradientUnits="userSpaceOnUse"><stop offset="0" style="stop-color:#ff8c73"/><stop offset="1" style="stop-color:#ff09a2"/></linearGradient><path d="M91.52 133.49h7.61v3.57h-7.61z" style="fill:url(#c)"/><linearGradient id="d" x1="108.421" x2="108.421" y1="17.981" y2="216.132" gradientUnits="userSpaceOnUse"><stop offset="0" style="stop-color:#ff8c73"/><stop offset="1" style="stop-color:#ff09a2"/></linearGradient><path d="M104.61 133.49h7.61v3.57h-7.61z" style="fill:url(#d)"/><linearGradient id="e" x1="121.287" x2="121.287" y1="17.981" y2="216.132" gradientUnits="userSpaceOnUse"><stop offset="0" style="stop-color:#ff8c73"/><stop offset="1" style="stop-color:#ff09a2"/></linearGradient><path d="M117.71 133.49h7.15v3.57h-7.15z" style="fill:url(#e)"/><linearGradient id="f" x1="100.981" x2="100.981" y1="17.981" y2="216.132" gradientUnits="userSpaceOnUse"><stop offset="0" style="stop-color:#ff8c73"/><stop offset="1" style="stop-color:#ff09a2"/></linearGradient><path d="M90.68 69.04h20.61v47.12H90.68z" style="opacity:.149;fill:url(#f)"/></svg>