<svg xmlns="http://www.w3.org/2000/svg" xml:space="preserve" id="Layer_1" width="997.53" height="174.78" x="0" y="0" version="1.1"><style>.st0{fill:#fff}</style><path d="M93.99 50.61v91.01H80.04c-.02-6.15-5.01-11.12-11.17-11.12-6.15 0-11.14 4.97-11.17 11.12H43.76V0H0v105.24c0 19.17 5.02 34.77 15.06 46.83 5.77 6.95 13.12 12.47 22.03 16.57s18.06 6.15 27.43 6.15c18.66 0 34.4-6.28 47.2-18.83s19.21-28 19.21-46.32c0-17.91-6.3-33.22-18.89-45.95-5.53-5.59-11.55-9.95-18.05-13.08" class="st0"/><path d="M48.42 119.04h6.37v3.19h-6.37zm11.27 0h6.79v3.19h-6.79zm11.68 0h6.79v3.19h-6.79zm11.68 0h6.37v3.19h-6.37z" class="st0"/><path d="M58.94 61.57h18.38v42.02H58.94z" style="opacity:.149;fill:#fff"/><path d="M175.66 144.42V29.12h11.03v57.81l-1.55 16.47 1.09 16.47v24.55zm42.11.78c-7.15 0-13.57-1.63-19.27-4.89s-10.2-8-13.52-14.22-4.97-13.73-4.97-22.53c0-8.91 1.68-16.45 5.05-22.61s7.9-10.85 13.6-14.06 12.07-4.82 19.11-4.82c7.77 0 14.74 1.74 20.9 5.21s11.01 8.31 14.53 14.53 5.28 13.47 5.28 21.76c0 8.18-1.76 15.41-5.28 21.68s-8.37 11.16-14.53 14.69c-6.17 3.5-13.13 5.26-20.9 5.26m-.78-9.79q8.7 0 15.54-3.96c4.56-2.64 8.18-6.37 10.88-11.19 2.69-4.82 4.04-10.39 4.04-16.7 0-6.42-1.35-12.02-4.04-16.78-2.7-4.76-6.32-8.47-10.88-11.11q-6.84-3.96-15.54-3.96c-5.8 0-11.01 1.32-15.62 3.96s-8.24 6.35-10.88 11.11c-2.64 4.77-3.96 10.36-3.96 16.78 0 6.32 1.32 11.89 3.96 16.7 2.64 4.82 6.27 8.55 10.88 11.19s9.82 3.96 15.62 3.96m69.62-90.6c-2.28 0-4.2-.78-5.75-2.33s-2.33-3.42-2.33-5.59c0-2.18.78-4.01 2.33-5.52 1.55-1.5 3.47-2.25 5.75-2.25s4.2.73 5.75 2.18 2.33 3.26 2.33 5.44c0 2.28-.75 4.2-2.25 5.75-1.51 1.55-3.45 2.32-5.83 2.32m-5.6 99.61V62.84h11.03v81.58zm41.8 0V29.12h11.03v115.3zm76.46.78c-8.5 0-15.95-1.79-22.38-5.36s-11.45-8.49-15.07-14.76c-3.63-6.27-5.44-13.44-5.44-21.52s1.73-15.23 5.21-21.45c3.47-6.22 8.24-11.11 14.3-14.68s12.87-5.36 20.43-5.36c7.67 0 14.48 1.74 20.43 5.21 5.96 3.47 10.64 8.34 14.06 14.61s5.13 13.49 5.13 21.68c0 .52-.03 1.06-.08 1.63s-.08 1.17-.08 1.79h-71.02v-8.24h65.11l-4.35 3.26c0-5.91-1.27-11.16-3.81-15.77s-5.98-8.21-10.33-10.8-9.38-3.88-15.07-3.88c-5.59 0-10.62 1.3-15.07 3.88-4.46 2.59-7.93 6.22-10.41 10.88-2.49 4.66-3.73 10-3.73 16.01v1.71c0 6.22 1.37 11.68 4.12 16.39 2.74 4.72 6.58 8.39 11.5 11.03q7.38 3.96 16.86 3.96c4.97 0 9.61-.88 13.91-2.64s8-4.45 11.11-8.08l6.22 7.15c-3.63 4.35-8.16 7.67-13.6 9.95-5.44 2.26-11.42 3.4-17.95 3.4m46.46-73.19v-9.17h50.5v9.17zm38.54 73.19c-7.67 0-13.57-2.07-17.72-6.22-4.14-4.14-6.22-10-6.22-17.56V44.81h11.03v75.99c0 4.77 1.22 8.44 3.65 11.03s5.93 3.89 10.49 3.89q7.305 0 12.12-4.2l3.88 7.92c-2.17 1.97-4.79 3.42-7.85 4.35-3.04.94-6.17 1.41-9.38 1.41m33.1-.78V29.12h24.24v48.64l-1.55 24.71.47 24.86v17.09zm49.25 1.25c-7.15 0-13.39-1.53-18.72-4.58-5.34-3.05-9.4-7.79-12.2-14.22q-4.2-9.63-4.2-24.24c0-9.84 1.48-17.92 4.43-24.24s7.07-11.03 12.35-14.14 11.39-4.66 18.34-4.66c7.98 0 15.1 1.79 21.37 5.36s11.24 8.57 14.92 15c3.68 6.42 5.52 13.98 5.52 22.69 0 8.7-1.84 16.27-5.52 22.69-3.68 6.43-8.65 11.42-14.92 15-6.27 3.55-13.39 5.34-21.37 5.34m-4.03-19.89c4.04 0 7.64-.91 10.8-2.72s5.7-4.48 7.61-8c1.92-3.52 2.87-7.67 2.87-12.43 0-4.87-.96-9.01-2.87-12.43-1.92-3.42-4.46-6.03-7.61-7.85-3.16-1.81-6.76-2.72-10.8-2.72s-7.67.91-10.88 2.72-5.78 4.43-7.69 7.85c-1.92 3.42-2.87 7.56-2.87 12.43 0 4.77.96 8.91 2.87 12.43 1.92 3.52 4.48 6.19 7.69 8s6.84 2.72 10.88 2.72m97.27 19.89c-7.05 0-13.26-1.34-18.65-4.04-5.39-2.69-9.58-6.84-12.59-12.43s-4.51-12.64-4.51-21.13V60.82h24.24v43.51c0 7.05 1.48 12.2 4.43 15.46s7.12 4.9 12.51 4.9c3.73 0 7.04-.83 9.95-2.49 2.9-1.66 5.21-4.14 6.92-7.46 1.71-3.31 2.56-7.46 2.56-12.43V60.82h24.09v83.6h-23v-23.15l4.2 6.84c-2.9 5.8-7.05 10.18-12.43 13.13-5.39 2.95-11.3 4.43-17.72 4.43m107.38 0c-7.88 0-14.97-1.79-21.29-5.36-6.32-3.58-11.29-8.57-14.92-15-3.63-6.42-5.44-13.98-5.44-22.69 0-8.7 1.81-16.26 5.44-22.69 3.62-6.42 8.6-11.42 14.92-15 6.32-3.57 13.41-5.36 21.29-5.36 7.04 0 13.21 1.55 18.49 4.66s9.37 7.82 12.28 14.14q4.35 9.48 4.35 24.24 0 14.61-4.2 24.24c-2.8 6.43-6.81 11.16-12.04 14.22-5.23 3.07-11.53 4.6-18.88 4.6m4.04-19.89c4.04 0 7.67-.91 10.88-2.72s5.77-4.48 7.69-8 2.87-7.67 2.87-12.43c0-4.87-.96-9.01-2.87-12.43-1.92-3.42-4.48-6.03-7.69-7.85-3.21-1.81-6.84-2.72-10.88-2.72-3.94 0-7.51.91-10.72 2.72s-5.78 4.43-7.69 7.85c-1.92 3.42-2.87 7.56-2.87 12.43 0 4.77.96 8.91 2.87 12.43 1.92 3.52 4.48 6.19 7.69 8s6.78 2.72 10.72 2.72m22.06 18.64v-17.09l.47-24.86-1.55-24.71V29.12h24.24v115.3zm80.81 1.25c-7.05 0-13.26-1.34-18.65-4.04-5.39-2.69-9.58-6.84-12.59-12.43s-4.51-12.64-4.51-21.13V60.82h24.24v43.51c0 7.05 1.48 12.2 4.43 15.46s7.12 4.9 12.51 4.9c3.73 0 7.04-.83 9.95-2.49 2.9-1.66 5.21-4.14 6.92-7.46 1.71-3.31 2.56-7.46 2.56-12.43V60.82h24.09v83.6h-23v-23.15l4.2 6.84c-2.9 5.8-7.05 10.18-12.43 13.13-5.4 2.95-11.3 4.43-17.72 4.43m71.48-1.25v-83.6h23.15V84.6l-3.26-6.99c2.49-5.91 6.47-10.39 11.97-13.44 5.49-3.05 12.17-4.58 20.05-4.58v22.53c-.93-.21-1.84-.36-2.72-.47-.88-.1-1.74-.16-2.56-.16-6.84 0-12.28 1.92-16.32 5.75s-6.06 9.74-6.06 17.72v39.47h-24.25z" class="st0"/></svg>