<?xml version="1.0" encoding="utf-8"?>
<!-- Generator: Adobe Adobe Illustrator 29.1.0, SVG Export Plug-In . SVG Version: 6.00 Build 0)  -->
<svg version="1.1" id="Layer_1" xmlns="http://www.w3.org/2000/svg" xmlns:xlink="http://www.w3.org/1999/xlink" x="0px" y="0px"
	 width="997.53px" height="174.78px" viewBox="0 0 997.53 174.78" style="enable-background:new 0 0 997.53 174.78;"
	 xml:space="preserve">
<style type="text/css">
	.st0{fill:url(#SVGID_1_);}
	.st1{fill:url(#SVGID_00000078728699515738113830000016944958779178279839_);}
	.st2{fill:url(#SVGID_00000060016886465008343580000009827713217657429183_);}
	.st3{fill:url(#SVGID_00000011017574862513223380000017584087328696312200_);}
	.st4{fill:url(#SVGID_00000145058518372191087720000001979789556601609642_);}
	.st5{opacity:0.149;fill:url(#SVGID_00000054226305652269806300000017789631248967851167_);}
	.st6{fill:#111C31;}
</style>
<g>
	<g>
		<linearGradient id="SVGID_1_" gradientUnits="userSpaceOnUse" x1="65.4678" y1="16.0343" x2="65.4678" y2="192.7372">
			<stop  offset="0" style="stop-color:#FF8C73"/>
			<stop  offset="1" style="stop-color:#FF049F"/>
		</linearGradient>
		<path class="st0" d="M93.99,50.61v91.01H80.04c-0.02-6.15-5.01-11.12-11.17-11.12c-6.15,0-11.14,4.97-11.17,11.12H43.76L43.76,0H0
			v105.24c0,19.17,5.02,34.77,15.06,46.83c5.77,6.95,13.12,12.47,22.03,16.57c8.91,4.1,18.06,6.15,27.43,6.15
			c18.66,0,34.4-6.28,47.2-18.83c12.8-12.55,19.21-28,19.21-46.32c0-17.91-6.3-33.22-18.89-45.95
			C106.51,58.1,100.49,53.74,93.99,50.61z"/>
		<g>
			
				<linearGradient id="SVGID_00000076596635360934045220000001627385783054677423_" gradientUnits="userSpaceOnUse" x1="51.6082" y1="16.0343" x2="51.6082" y2="192.7372">
				<stop  offset="0" style="stop-color:#FF8C73"/>
				<stop  offset="1" style="stop-color:#FF09A2"/>
			</linearGradient>
			
				<rect x="48.42" y="119.04" style="fill:url(#SVGID_00000076596635360934045220000001627385783054677423_);" width="6.37" height="3.19"/>
			
				<linearGradient id="SVGID_00000142152654993157897870000009927122321594736565_" gradientUnits="userSpaceOnUse" x1="63.0808" y1="16.0343" x2="63.0808" y2="192.7372">
				<stop  offset="0" style="stop-color:#FF8C73"/>
				<stop  offset="1" style="stop-color:#FF09A2"/>
			</linearGradient>
			
				<rect x="59.69" y="119.04" style="fill:url(#SVGID_00000142152654993157897870000009927122321594736565_);" width="6.79" height="3.19"/>
			
				<linearGradient id="SVGID_00000159433486899127631090000014318617318545112486_" gradientUnits="userSpaceOnUse" x1="74.7612" y1="16.0343" x2="74.7612" y2="192.7372">
				<stop  offset="0" style="stop-color:#FF8C73"/>
				<stop  offset="1" style="stop-color:#FF09A2"/>
			</linearGradient>
			
				<rect x="71.37" y="119.04" style="fill:url(#SVGID_00000159433486899127631090000014318617318545112486_);" width="6.79" height="3.19"/>
			
				<linearGradient id="SVGID_00000103228859811593761500000015920184224653220512_" gradientUnits="userSpaceOnUse" x1="86.2337" y1="16.0343" x2="86.2337" y2="192.7372">
				<stop  offset="0" style="stop-color:#FF8C73"/>
				<stop  offset="1" style="stop-color:#FF09A2"/>
			</linearGradient>
			
				<rect x="83.05" y="119.04" style="fill:url(#SVGID_00000103228859811593761500000015920184224653220512_);" width="6.37" height="3.19"/>
		</g>
		
			<linearGradient id="SVGID_00000091718619607986124000000015461492759236103830_" gradientUnits="userSpaceOnUse" x1="68.1263" y1="16.0343" x2="68.1263" y2="192.7372">
			<stop  offset="0" style="stop-color:#FF8C73"/>
			<stop  offset="1" style="stop-color:#FF09A2"/>
		</linearGradient>
		
			<rect x="58.94" y="61.57" style="opacity:0.149;fill:url(#SVGID_00000091718619607986124000000015461492759236103830_);" width="18.38" height="42.02"/>
	</g>
	<g>
		<path class="st6" d="M175.66,144.42V29.12h11.03v57.81l-1.55,16.47l1.09,16.47v24.55H175.66z M217.77,145.2
			c-7.15,0-13.57-1.63-19.27-4.89c-5.7-3.26-10.2-8-13.52-14.22c-3.32-6.22-4.97-13.73-4.97-22.53c0-8.91,1.68-16.45,5.05-22.61
			c3.37-6.16,7.9-10.85,13.6-14.06c5.7-3.21,12.07-4.82,19.11-4.82c7.77,0,14.74,1.74,20.9,5.21c6.16,3.47,11.01,8.31,14.53,14.53
			c3.52,6.22,5.28,13.47,5.28,21.76c0,8.18-1.76,15.41-5.28,21.68c-3.52,6.27-8.37,11.16-14.53,14.69
			C232.5,143.44,225.54,145.2,217.77,145.2z M216.99,135.41c5.8,0,10.98-1.32,15.54-3.96c4.56-2.64,8.18-6.37,10.88-11.19
			c2.69-4.82,4.04-10.39,4.04-16.7c0-6.42-1.35-12.02-4.04-16.78c-2.7-4.76-6.32-8.47-10.88-11.11c-4.56-2.64-9.74-3.96-15.54-3.96
			c-5.8,0-11.01,1.32-15.62,3.96c-4.61,2.64-8.24,6.35-10.88,11.11c-2.64,4.77-3.96,10.36-3.96,16.78c0,6.32,1.32,11.89,3.96,16.7
			c2.64,4.82,6.27,8.55,10.88,11.19C205.98,134.09,211.19,135.41,216.99,135.41z"/>
		<path class="st6" d="M286.61,44.81c-2.28,0-4.2-0.78-5.75-2.33s-2.33-3.42-2.33-5.59c0-2.18,0.78-4.01,2.33-5.52
			c1.55-1.5,3.47-2.25,5.75-2.25c2.28,0,4.2,0.73,5.75,2.18c1.55,1.45,2.33,3.26,2.33,5.44c0,2.28-0.75,4.2-2.25,5.75
			C290.93,44.04,288.99,44.81,286.61,44.81z M281.01,144.42V62.84h11.03v81.58H281.01z"/>
		<path class="st6" d="M322.81,144.42V29.12h11.03v115.3H322.81z"/>
		<path class="st6" d="M399.27,145.2c-8.5,0-15.95-1.79-22.38-5.36c-6.43-3.57-11.45-8.49-15.07-14.76
			c-3.63-6.27-5.44-13.44-5.44-21.52c0-8.08,1.73-15.23,5.21-21.45c3.47-6.22,8.24-11.11,14.3-14.68s12.87-5.36,20.43-5.36
			c7.67,0,14.48,1.74,20.43,5.21c5.96,3.47,10.64,8.34,14.06,14.61c3.42,6.27,5.13,13.49,5.13,21.68c0,0.52-0.03,1.06-0.08,1.63
			c-0.05,0.57-0.08,1.17-0.08,1.79h-71.02v-8.24h65.11l-4.35,3.26c0-5.91-1.27-11.16-3.81-15.77c-2.54-4.61-5.98-8.21-10.33-10.8
			c-4.35-2.59-9.38-3.88-15.07-3.88c-5.59,0-10.62,1.3-15.07,3.88c-4.46,2.59-7.93,6.22-10.41,10.88c-2.49,4.66-3.73,10-3.73,16.01
			v1.71c0,6.22,1.37,11.68,4.12,16.39c2.74,4.72,6.58,8.39,11.5,11.03c4.92,2.64,10.54,3.96,16.86,3.96c4.97,0,9.61-0.88,13.91-2.64
			c4.3-1.76,8-4.45,11.11-8.08l6.22,7.15c-3.63,4.35-8.16,7.67-13.6,9.95C411.78,144.06,405.8,145.2,399.27,145.2z"/>
		<path class="st6" d="M445.73,72.01v-9.17h50.5v9.17H445.73z M484.27,145.2c-7.67,0-13.57-2.07-17.72-6.22
			c-4.14-4.14-6.22-10-6.22-17.56V44.81h11.03v75.99c0,4.77,1.22,8.44,3.65,11.03c2.43,2.59,5.93,3.89,10.49,3.89
			c4.87,0,8.91-1.4,12.12-4.2l3.88,7.92c-2.17,1.97-4.79,3.42-7.85,4.35C490.61,144.73,487.48,145.2,484.27,145.2z"/>
		<path class="st6" d="M517.37,144.42V29.12h24.24v48.64l-1.55,24.71l0.47,24.86v17.09H517.37z M566.62,145.67
			c-7.15,0-13.39-1.53-18.72-4.58c-5.34-3.05-9.4-7.79-12.2-14.22c-2.8-6.42-4.2-14.5-4.2-24.24c0-9.84,1.48-17.92,4.43-24.24
			c2.95-6.32,7.07-11.03,12.35-14.14c5.28-3.11,11.39-4.66,18.34-4.66c7.98,0,15.1,1.79,21.37,5.36c6.27,3.57,11.24,8.57,14.92,15
			c3.68,6.42,5.52,13.98,5.52,22.69c0,8.7-1.84,16.27-5.52,22.69c-3.68,6.43-8.65,11.42-14.92,15
			C581.72,143.88,574.6,145.67,566.62,145.67z M562.59,125.78c4.04,0,7.64-0.91,10.8-2.72c3.16-1.81,5.7-4.48,7.61-8
			c1.92-3.52,2.87-7.67,2.87-12.43c0-4.87-0.96-9.01-2.87-12.43c-1.92-3.42-4.46-6.03-7.61-7.85c-3.16-1.81-6.76-2.72-10.8-2.72
			c-4.04,0-7.67,0.91-10.88,2.72c-3.21,1.81-5.78,4.43-7.69,7.85c-1.92,3.42-2.87,7.56-2.87,12.43c0,4.77,0.96,8.91,2.87,12.43
			c1.92,3.52,4.48,6.19,7.69,8C554.92,124.87,558.55,125.78,562.59,125.78z"/>
		<path class="st6" d="M659.86,145.67c-7.05,0-13.26-1.34-18.65-4.04c-5.39-2.69-9.58-6.84-12.59-12.43
			c-3.01-5.59-4.51-12.64-4.51-21.13V60.82h24.24v43.51c0,7.05,1.48,12.2,4.43,15.46c2.95,3.26,7.12,4.9,12.51,4.9
			c3.73,0,7.04-0.83,9.95-2.49c2.9-1.66,5.21-4.14,6.92-7.46c1.71-3.31,2.56-7.46,2.56-12.43V60.82h24.09v83.6h-23v-23.15l4.2,6.84
			c-2.9,5.8-7.05,10.18-12.43,13.13C672.19,144.19,666.28,145.67,659.86,145.67z"/>
		<path class="st6" d="M767.24,145.67c-7.88,0-14.97-1.79-21.29-5.36c-6.32-3.58-11.29-8.57-14.92-15
			c-3.63-6.42-5.44-13.98-5.44-22.69c0-8.7,1.81-16.26,5.44-22.69c3.62-6.42,8.6-11.42,14.92-15c6.32-3.57,13.41-5.36,21.29-5.36
			c7.04,0,13.21,1.55,18.49,4.66c5.28,3.11,9.37,7.82,12.28,14.14c2.9,6.32,4.35,14.4,4.35,24.24c0,9.74-1.4,17.82-4.2,24.24
			c-2.8,6.43-6.81,11.16-12.04,14.22C780.89,144.14,774.59,145.67,767.24,145.67z M771.28,125.78c4.04,0,7.67-0.91,10.88-2.72
			c3.21-1.81,5.77-4.48,7.69-8c1.92-3.52,2.87-7.67,2.87-12.43c0-4.87-0.96-9.01-2.87-12.43c-1.92-3.42-4.48-6.03-7.69-7.85
			c-3.21-1.81-6.84-2.72-10.88-2.72c-3.94,0-7.51,0.91-10.72,2.72c-3.21,1.81-5.78,4.43-7.69,7.85c-1.92,3.42-2.87,7.56-2.87,12.43
			c0,4.77,0.96,8.91,2.87,12.43c1.92,3.52,4.48,6.19,7.69,8C763.77,124.87,767.34,125.78,771.28,125.78z M793.34,144.42v-17.09
			l0.47-24.86l-1.55-24.71V29.12h24.24v115.3H793.34z"/>
		<path class="st6" d="M874.15,145.67c-7.05,0-13.26-1.34-18.65-4.04c-5.39-2.69-9.58-6.84-12.59-12.43
			c-3.01-5.59-4.51-12.64-4.51-21.13V60.82h24.24v43.51c0,7.05,1.48,12.2,4.43,15.46c2.95,3.26,7.12,4.9,12.51,4.9
			c3.73,0,7.04-0.83,9.95-2.49c2.9-1.66,5.21-4.14,6.92-7.46c1.71-3.31,2.56-7.46,2.56-12.43V60.82h24.09v83.6h-23v-23.15l4.2,6.84
			c-2.9,5.8-7.05,10.18-12.43,13.13C886.47,144.19,880.57,145.67,874.15,145.67z"/>
		<path class="st6" d="M945.63,144.42v-83.6h23.15v23.78l-3.26-6.99c2.49-5.91,6.47-10.39,11.97-13.44
			c5.49-3.05,12.17-4.58,20.05-4.58v22.53c-0.93-0.21-1.84-0.36-2.72-0.47c-0.88-0.1-1.74-0.16-2.56-0.16
			c-6.84,0-12.28,1.92-16.32,5.75c-4.04,3.83-6.06,9.74-6.06,17.72v39.47H945.63z"/>
	</g>
</g>
</svg>
